<?xml version="1.0" encoding="utf-8"?>
<!-- Generator: Adobe Illustrator 23.0.5, SVG Export Plug-In . SVG Version: 6.00 Build 0)  -->
<svg version="1.1" id="Layer_1" xmlns="http://www.w3.org/2000/svg" xmlns:xlink="http://www.w3.org/1999/xlink" x="0px" y="0px"
	 viewBox="0 0 576 576" style="enable-background:new 0 0 576 576;" xml:space="preserve">
<style type="text/css">
	.st0{fill:#FFFFFF;}
	.st1{fill:#020618;}
</style>
<g>
	<defs>
		<rect id="SVGID_1_" width="576" height="576"/>
	</defs>
	<clipPath id="SVGID_2_">
		<use xlink:href="#SVGID_1_"  style="overflow:visible;"/>
	</clipPath>
</g>
<g>
	<g>
		<path class="st0" d="M355.2,182.5c0.4,0.3,0.8,0.5,1.1,0.5c0.3,0,0.5-0.3,0.5-0.8c0-3.2-2.9-10.3-8.6-21.1c-1-2.6-1.8-3.8-2.3-3.8
			c-0.2,0-0.4,0.2-0.5,0.6c-1.8,5.6-2.7,9.1-2.7,10.6c0,0.8,0.2,1.4,0.5,1.8c0.9,1.2,1.4,2,1.5,2.3c0.5,9.4,1.2,17.8,2.2,25.2
			c5.6,43.3,8.4,67.6,8.4,72.7c0,0.7-0.1,1.2-0.2,1.3c-1.2,2.6-2.7,4.4-4.5,5.4c-2.2,1.4-5.7,2-10.3,2c-3.7,0-7.1-1.9-10.2-5.9
			c-3.6-4.4-6.1-10.7-7.6-18.9c-2.6-13.8-5-24.4-7.4-31.8c-6.6-20.2-10.8-30.3-12.6-30.3c-0.3,0-0.5,0.2-0.8,0.5l-1.5,9.9
			c2.6,8.5,5.2,16.3,7.8,23.4c3.3,9.8,5,15.3,5.3,16.5c0.7,3.4,1.2,6,1.5,7.8c-3,5.9-7.6,11.6-14,17.3c-2,1.7-5.1,4.2-9.4,7.3
			c-5.1,3.7-10.9,6.8-17.5,9.4c-5.1,1.9-8.5,2.9-10.1,2.9c-6.8,0-10.4-3-10.7-9.1c0-0.5,0-1,0-1.5c3.3-2.1,7.1-3.9,11.4-4.9
			c6.3-1.5,12.4-1.6,19.1,0.2l1.4-3.4c-8.5-9-16.7-13.3-26.1-11.9c1.2-2.7,2.7-5.6,4.3-8.7c0.9-1.8,1.4-3.3,1.4-4.3
			c0-0.5-0.2-0.8-0.5-0.8c-0.7,0-1.8,1.2-3.4,3.7c-2.3,3.8-4.2,7.5-5.7,11c-7.8,2.6-14.3,9.9-17.8,21c-2.4,7.9-2.8,16.5-1.8,22.5
			c2,12.1,8.2,18.4,22.8,26.1c-7.5,11.4-12.8,24.5-13.1,38.5c-3.7,2-7.1,3-10.1,3c-4.4,0-6.8-3-7.2-9.1c-0.4-8.1,2.4-18.2,8.5-30.3
			c0.8-1.5,1.2-2.5,1.2-3.2c0-0.4-0.1-0.6-0.4-0.6c-0.9,0-1.8,0.8-2.7,2.3c-6.7,12-10.1,23-10.1,32.9c0,4.7,1.6,8.8,4.8,12.1
			c3.2,3.4,7.1,5,11.6,5c1.5,0,3.2-0.4,5-1.3v0c0.9,5.4,2.3,10.3,4,14.6c1,2.3,2.1,4.5,3.3,6.5c-1,0.1-2.1,0.1-3.1,0.1h0
			c-6.7,0.4-19.6,0.6-34-4.7c-6-2.2-12-5.3-17.9-9.4c0,0,2.1,24.9,46.3,26c5.2,0.1,10.6-0.3,15.9-1.2c0,0,0,0,0.1,0
			c0.2,0,0.5-0.1,0.7-0.1c8.1,7,19.2,10.2,31.3,10.3c5.2,0,10.6-0.5,16.1-1.6c0,0,0.1,0,0.1,0c2.2-0.4,4.2-0.9,6.1-1.4
			c0.5-0.2,1-0.5,1.5-0.8c2.4-1.2,4.6-2.6,6.6-4.2c1.2-0.9,2.3-1.9,3.4-2.9c0.2-0.2,0.5-0.4,0.7-0.6l0.1-0.1
			c3.3-3.4,5.9-7.4,7.6-11.9c0-0.1,0.1-0.2,0.1-0.2c0.2-0.5,0.4-1,0.5-1.6c0.5-1.7,0.9-3.5,1.2-5.4c0.1-0.5,0.2-1.1,0.2-1.6
			c1-9.1-2.2-17.7-8-25.5c-1.8-2.5-3.9-5-6.3-7.3c-0.8-0.8-1.7-1.7-2.6-2.5c0,0-0.1,0-0.1-0.1c-1.6-1.2-4.7-1.8-8.6-2l-4.2,0.3
			c-14.7,1.3-32,5.6-32.4,9c-0.7,5.6-1.4,9.1,7.7,10.9c9.1,1.8,33.3,5.3,17.2,14c-4.8,2.6-12,7.2-26.9,11c-3.3-1.4-6.2-3.2-8.8-5.3
			c-5.1-4.4-8.7-10.1-10.4-17.1c1.9-1.5,3.9-3.4,6.1-5.5c14.4-14.4,23.6-23.3,27.7-26.5c8.2-6.7,15.5-10.1,21.9-10.1
			c6.2,0,10.3,2,12.6,6c0.4,0.9,0.8,1.4,1.2,1.4c0.7,0,1.3-1.3,1.9-3.9c0.5-2.2,0.8-4,0.8-5.4c0-2.9-1.2-5.3-3.7-7.2
			c-2.4-1.9-5.6-2.9-9.5-2.9c-8.9,0-18.5,4.4-28.8,13.2c-8.3,8.2-16.6,16.4-25,24.6c-1.9,1.8-3.7,3.4-5.4,4.7
			c1.6-8.7,6.9-18.1,14.7-26.4c10-10.6,22.9-21.1,36.7-31.4l1.5-19.3l-0.7-0.3c-9.9,7.2-19.7,15.2-29.4,23.7c-1.8,1.6-3.8,3.5-6.1,4
			c-2.4,0.5-9-1.9-13.8-4.5c-8.3-4.7-12.2-8.9-13.2-15.2c-0.5-3.1,2-7.5,6.5-11.5c0,0.3,0,0.7,0,1c0,12.6,4.2,18.9,12.7,18.9
			c8,0,17.8-4.2,29.3-12.5c9.9-7.2,16.8-13.8,20.9-20c1.6-2.4,2.8-5.5,3.7-9.3c3.2,13.6,6.5,22.3,9.9,26.1c4.3,4.9,9.1,7.3,14.3,7.3
			c5.8,0,10.8-2.9,15-8.8c3.5-4.8,5.1-12.6,4.9-23.3c-3.5-33.4-6.7-60.5-9.5-81.2C353.6,180.8,355.1,182.4,355.2,182.5 M295.5,398.4
			c0.1,0,0.2-0.1,0.3-0.1c25.3-12.1,38.2-31.5,4.9-38.3c0,0,8.1-2.1,17-1.8c1.7,0,3.3,0.7,4.6,1.8c7.3,6.4,11.3,13,10.7,19
			c-0.5,5.2-3.1,9.7-7.5,13.5c-0.1,0.1-0.1,0.1-0.2,0.1c-1,0.9-2.1,1.7-3.2,2.4c-4.2,2.8-8.9,4.6-13.9,5.4c-1.6,0.3-3.2,0.5-4.8,0.6
			h-3.9c-1.4,0-2.8,0-4.2-0.2c-1.4-0.1-2.7-0.3-4-0.5C292.7,399.7,294.1,399,295.5,398.4"/>
		<path class="st0" d="M377.7,268.2c0,9.2-1.1,15.9-3.3,20c-0.8,1.6-1.4,2.3-1.8,2.3c-0.6,0-0.7-1.8-0.2-5.3
			c0.5-4.5,0.6-9.2,0.1-14.1c-2-15.9-4.8-39.9-8.4-71.9c-0.4-5.9-1.2-14.3-2.3-25.3c-0.2-0.6-0.9-2.3-2.2-4.9
			c-0.3-0.6,0.5-4.1,2.7-10.6c0.1-0.4,0.3-0.6,0.5-0.6c0.6,0,1.3,1.2,2.4,3.6c1.7,3.7,3.4,7.4,5.1,11c2.7,5.7,4,9.2,4,10.6
			c0,0.5-0.2,0.7-0.5,0.7c-0.2,0-0.6-0.2-1.1-0.5c-1.4-1.1-2.9-2.4-4.4-4c-0.1,1.6,1,11.8,3.4,30.7c2.9,22.6,4.8,39.3,5.8,50.2
			C377.6,262.9,377.7,265.6,377.7,268.2"/>
	</g>
</g>
<g>
	<defs>
		<rect id="SVGID_3_" x="706" width="576" height="576"/>
	</defs>
	<clipPath id="SVGID_4_">
		<use xlink:href="#SVGID_3_"  style="overflow:visible;"/>
	</clipPath>
</g>
<g>
	<g>
		<path class="st1" d="M1061.2,182.5c0.4,0.3,0.8,0.5,1.1,0.5c0.3,0,0.5-0.3,0.5-0.8c0-3.2-2.9-10.3-8.6-21.1
			c-1-2.6-1.8-3.8-2.3-3.8c-0.2,0-0.4,0.2-0.5,0.6c-1.8,5.6-2.7,9.1-2.7,10.6c0,0.8,0.2,1.4,0.5,1.8c0.9,1.2,1.4,2,1.5,2.3
			c0.5,9.4,1.2,17.8,2.2,25.2c5.6,43.3,8.4,67.6,8.4,72.7c0,0.7-0.1,1.2-0.2,1.3c-1.2,2.6-2.7,4.4-4.5,5.4c-2.2,1.4-5.7,2-10.3,2
			c-3.7,0-7.1-1.9-10.2-5.9c-3.6-4.4-6.1-10.7-7.6-18.9c-2.6-13.8-5-24.4-7.4-31.8c-6.6-20.2-10.8-30.3-12.6-30.3
			c-0.3,0-0.5,0.2-0.8,0.5l-1.5,9.9c2.6,8.5,5.2,16.3,7.8,23.4c3.3,9.8,5,15.3,5.3,16.5c0.7,3.4,1.2,6,1.5,7.8
			c-3,5.9-7.6,11.6-14,17.3c-2,1.7-5.1,4.2-9.4,7.3c-5.1,3.7-10.9,6.8-17.5,9.4c-5.1,1.9-8.5,2.9-10.1,2.9c-6.8,0-10.4-3-10.7-9.1
			c0-0.5,0-1,0-1.5c3.3-2.1,7.1-3.9,11.4-4.9c6.3-1.5,12.4-1.6,19.1,0.2l1.4-3.4c-8.5-9-16.7-13.3-26.1-11.9
			c1.2-2.7,2.7-5.6,4.3-8.7c0.9-1.8,1.4-3.3,1.4-4.3c0-0.5-0.2-0.8-0.5-0.8c-0.7,0-1.8,1.2-3.4,3.7c-2.3,3.8-4.2,7.5-5.7,11
			c-7.8,2.6-14.3,9.9-17.8,21c-2.4,7.9-2.8,16.5-1.8,22.5c2,12.1,8.2,18.4,22.8,26.1c-7.5,11.4-12.8,24.5-13.1,38.5
			c-3.7,2-7.1,3-10.1,3c-4.4,0-6.8-3-7.2-9.1c-0.4-8.1,2.4-18.2,8.5-30.3c0.8-1.5,1.2-2.5,1.2-3.2c0-0.4-0.1-0.6-0.4-0.6
			c-0.9,0-1.8,0.8-2.7,2.3c-6.7,12-10.1,23-10.1,32.9c0,4.7,1.6,8.8,4.8,12.1c3.2,3.4,7.1,5,11.6,5c1.5,0,3.2-0.4,5-1.3v0
			c0.9,5.4,2.3,10.3,4,14.6c1,2.3,2.1,4.5,3.3,6.5c-1,0.1-2.1,0.1-3.1,0.1h0c-6.7,0.4-19.6,0.6-34-4.7c-6-2.2-12-5.3-17.9-9.4
			c0,0,2.1,24.9,46.3,26c5.2,0.1,10.6-0.3,15.9-1.2c0,0,0,0,0.1,0c0.2,0,0.5-0.1,0.7-0.1c8.1,7,19.2,10.2,31.3,10.3
			c5.2,0,10.6-0.5,16.1-1.6c0,0,0.1,0,0.1,0c2.2-0.4,4.2-0.9,6.1-1.4c0.5-0.2,1-0.5,1.5-0.8c2.4-1.2,4.6-2.6,6.6-4.2
			c1.2-0.9,2.3-1.9,3.4-2.9c0.2-0.2,0.5-0.4,0.7-0.6l0.1-0.1c3.3-3.4,5.9-7.4,7.6-11.9c0-0.1,0.1-0.2,0.1-0.2c0.2-0.5,0.4-1,0.5-1.6
			c0.5-1.7,0.9-3.5,1.2-5.4c0.1-0.5,0.2-1.1,0.2-1.6c1-9.1-2.2-17.7-8-25.5c-1.8-2.5-3.9-5-6.3-7.3c-0.8-0.8-1.7-1.7-2.6-2.5
			c0,0-0.1,0-0.1-0.1c-1.6-1.2-4.7-1.8-8.6-2l-4.2,0.3c-14.7,1.3-32,5.6-32.4,9c-0.7,5.6-1.4,9.1,7.7,10.9c9.1,1.8,33.3,5.3,17.2,14
			c-4.8,2.6-12,7.2-26.9,11c-3.3-1.4-6.2-3.2-8.8-5.3c-5.1-4.4-8.7-10.1-10.4-17.1c1.9-1.5,3.9-3.4,6.1-5.5
			c14.4-14.4,23.6-23.3,27.7-26.5c8.2-6.7,15.5-10.1,21.9-10.1c6.2,0,10.3,2,12.6,6c0.4,0.9,0.8,1.4,1.2,1.4c0.7,0,1.3-1.3,1.9-3.9
			c0.5-2.2,0.8-4,0.8-5.4c0-2.9-1.2-5.3-3.7-7.2c-2.4-1.9-5.6-2.9-9.5-2.9c-8.9,0-18.5,4.4-28.8,13.2c-8.3,8.2-16.6,16.4-25,24.6
			c-1.9,1.8-3.7,3.4-5.4,4.7c1.6-8.7,6.9-18.1,14.7-26.4c10-10.6,22.9-21.1,36.7-31.4l1.5-19.3l-0.7-0.3
			c-9.9,7.2-19.7,15.2-29.4,23.7c-1.8,1.6-3.8,3.5-6.1,4c-2.4,0.5-9-1.9-13.8-4.5c-8.3-4.7-12.2-8.9-13.2-15.2
			c-0.5-3.1,2-7.5,6.5-11.5c0,0.3,0,0.7,0,1c0,12.6,4.2,18.9,12.7,18.9c8,0,17.8-4.2,29.3-12.5c9.9-7.2,16.8-13.8,20.9-20
			c1.6-2.4,2.8-5.5,3.7-9.3c3.2,13.6,6.5,22.3,9.9,26.1c4.3,4.9,9.1,7.3,14.3,7.3c5.8,0,10.8-2.9,15-8.8c3.5-4.8,5.1-12.6,4.9-23.3
			c-3.5-33.4-6.7-60.5-9.5-81.2C1059.6,180.8,1061.1,182.4,1061.2,182.5 M1001.5,398.4c0.1,0,0.2-0.1,0.3-0.1
			c25.3-12.1,38.2-31.5,4.9-38.3c0,0,8.1-2.1,17-1.8c1.7,0,3.3,0.7,4.6,1.8c7.3,6.4,11.3,13,10.7,19c-0.5,5.2-3.1,9.7-7.5,13.5
			c-0.1,0.1-0.1,0.1-0.2,0.1c-1,0.9-2.1,1.7-3.2,2.4c-4.2,2.8-8.9,4.6-13.9,5.4c-1.6,0.3-3.2,0.5-4.8,0.6h-3.9c-1.4,0-2.8,0-4.2-0.2
			c-1.4-0.1-2.7-0.3-4-0.5C998.7,399.7,1000.1,399,1001.5,398.4"/>
		<path class="st1" d="M1083.7,268.2c0,9.2-1.1,15.9-3.3,20c-0.8,1.6-1.4,2.3-1.8,2.3c-0.6,0-0.7-1.8-0.2-5.3
			c0.5-4.5,0.6-9.2,0.1-14.1c-2-15.9-4.8-39.9-8.4-71.9c-0.4-5.9-1.2-14.3-2.3-25.3c-0.2-0.6-0.9-2.3-2.2-4.9
			c-0.3-0.6,0.5-4.1,2.7-10.6c0.1-0.4,0.3-0.6,0.5-0.6c0.6,0,1.3,1.2,2.4,3.6c1.7,3.7,3.4,7.4,5.1,11c2.7,5.7,4,9.2,4,10.6
			c0,0.5-0.1,0.7-0.5,0.7c-0.2,0-0.6-0.2-1.1-0.5c-1.4-1.1-2.9-2.4-4.4-4c-0.1,1.6,1,11.8,3.4,30.7c2.9,22.6,4.8,39.3,5.8,50.2
			C1083.6,262.9,1083.7,265.6,1083.7,268.2"/>
	</g>
</g>
</svg>
